<svg data-v-423bf9ae="" xmlns="http://www.w3.org/2000/svg" viewBox="0 0 341.9610595616674 163" class="iconAbove"><!----><!----><!----><g data-v-423bf9ae="" id="d6eed651-69cf-4b34-b961-129dbd76dc2f" fill="#000000" transform="matrix(4.325882939406962,0,0,4.325882939406962,-8.132657159321468,89.67628183033955)"><path d="M1.88 13.78L7.57 13.78L7.57 12.78L3.02 12.78L3.02 4.54L1.88 4.54ZM12.60 13.96C14.39 13.96 15.96 12.59 15.96 10.22C15.96 7.83 14.39 6.47 12.60 6.47C10.81 6.47 9.24 7.83 9.24 10.22C9.24 12.59 10.81 13.96 12.60 13.96ZM12.60 13.01C11.30 13.01 10.43 11.89 10.43 10.22C10.43 8.55 11.30 7.42 12.60 7.42C13.90 7.42 14.77 8.55 14.77 10.22C14.77 11.89 13.90 13.01 12.60 13.01ZM20.24 13.96C21.21 13.96 22.18 13.41 22.93 12.80L22.97 12.80L23.07 13.78L24.01 13.78L24.01 9.38C24.01 7.63 23.11 6.47 21.25 6.47C20.06 6.47 19.05 7.03 18.51 7.49L18.96 8.29C19.45 7.87 20.17 7.42 21.06 7.42C22.37 7.42 22.83 8.27 22.86 9.25C19.35 9.56 17.93 10.33 17.93 11.94C17.93 13.22 18.97 13.96 20.24 13.96ZM20.55 13.03C19.77 13.03 19.05 12.68 19.05 11.86C19.05 10.89 19.95 10.28 22.86 10.02L22.86 11.94C22.09 12.64 21.32 13.03 20.55 13.03ZM28.99 13.96C29.83 13.96 30.65 13.43 31.21 12.82L31.25 12.82L31.35 13.78L32.30 13.78L32.30 3.60L31.15 3.60L31.15 6.06L31.19 7.41C30.56 6.82 29.96 6.47 29.13 6.47C27.52 6.47 26.04 7.91 26.04 10.22C26.04 12.60 27.22 13.96 28.99 13.96ZM29.23 12.99C27.97 12.99 27.23 11.93 27.23 10.21C27.23 8.57 28.18 7.43 29.36 7.43C29.95 7.43 30.53 7.67 31.15 8.29L31.15 11.89C30.55 12.61 29.90 12.99 29.23 12.99ZM38.08 5.04C38.63 5.04 39.06 4.65 39.06 4.07C39.06 3.49 38.63 3.08 38.08 3.08C37.53 3.08 37.10 3.49 37.10 4.07C37.10 4.65 37.53 5.04 38.08 5.04ZM35 13.78L41.44 13.78L41.44 12.82L38.79 12.82L38.79 6.64L35 6.64L35 7.57L37.65 7.57L37.65 12.82L35 12.82ZM43.30 13.78L44.45 13.78L44.45 8.79C45.25 7.90 45.79 7.46 46.61 7.46C47.73 7.46 48.17 8.12 48.17 9.49L48.17 13.78L49.32 13.78L49.32 9.34C49.32 7.46 48.58 6.47 46.97 6.47C45.91 6.47 45.12 7.07 44.41 7.88L44.35 7.88L44.25 6.64L43.30 6.64ZM54.32 16.95C56.34 16.95 57.50 15.85 57.50 13.78L57.50 6.64L56.57 6.64L56.48 7.43L56.43 7.43C55.83 6.83 55.15 6.47 54.35 6.47C52.70 6.47 51.24 7.87 51.24 10.11C51.24 12.36 52.43 13.71 54.18 13.71C55.02 13.71 55.86 13.23 56.39 12.64L56.38 13.78C56.36 15.44 55.62 16.03 54.32 16.03C53.63 16.03 52.85 15.83 52.15 14.94L51.59 15.64C52.47 16.69 53.44 16.95 54.32 16.95ZM54.43 12.75C53.19 12.75 52.42 11.72 52.42 10.09C52.42 8.54 53.40 7.43 54.54 7.43C55.15 7.43 55.73 7.67 56.35 8.29L56.35 11.66C55.73 12.38 55.09 12.75 54.43 12.75ZM63 13.94C63.63 13.94 64.13 13.47 64.13 12.77C64.13 12.05 63.63 11.58 63 11.58C62.37 11.58 61.87 12.05 61.87 12.77C61.87 13.47 62.37 13.94 63 13.94ZM71.40 13.94C72.03 13.94 72.53 13.47 72.53 12.77C72.53 12.05 72.03 11.58 71.40 11.58C70.77 11.58 70.27 12.05 70.27 12.77C70.27 13.47 70.77 13.94 71.40 13.94ZM79.80 13.94C80.43 13.94 80.93 13.47 80.93 12.77C80.93 12.05 80.43 11.58 79.80 11.58C79.17 11.58 78.67 12.05 78.67 12.77C78.67 13.47 79.17 13.94 79.80 13.94Z"></path></g><defs data-v-423bf9ae=""><linearGradient data-v-423bf9ae="" gradientTransform="rotate(25)" id="862c3dec-d54c-4e35-a6e3-21638bde0c4f" x1="0%" y1="0%" x2="100%" y2="0%"><stop data-v-423bf9ae="" offset="0%" style="stop-color: rgb(57, 94, 202); stop-opacity: 1;"></stop><stop data-v-423bf9ae="" offset="100%" style="stop-color: rgb(132, 139, 216); stop-opacity: 1;"></stop></linearGradient></defs><g data-v-423bf9ae="" id="c40b9ef6-cc45-4e40-bd5c-5e3309ec7743" transform="matrix(2.8125,0,0,2.8125,126,1.0290013551712036)" stroke="none" fill="url(#862c3dec-d54c-4e35-a6e3-21638bde0c4f)"><path d="M0 31.984h32v-32H0v32zm2-30h28v28H2v-28z"></path><path d="M6.439 16.831h8.959l-4.48-7.741zM16.602 13.331h8.959L21.082 5.59zM6.439 26.41h8.959l-4.48-7.741zM16.602 22.91h8.959l-4.479-7.741z"></path></g><!----></svg>