<svg data-v-423bf9ae="" xmlns="http://www.w3.org/2000/svg" viewBox="0 0 284 90" class="iconLeft"><!----><!----><!----><g data-v-423bf9ae="" id="92710e5a-9905-4856-8cb7-25aa34151a4b" fill="#000000" transform="matrix(4.395604211341765,0,0,4.395604211341765,103.89011521157151,1.6373619346885562)"><path d="M2.49 12.26L2.49 3.65C2.49 3.49 2.44 3.43 2.27 3.43L1.61 3.43C1.44 3.43 1.39 3.49 1.39 3.65L1.39 13.01C1.39 13.17 1.44 13.23 1.61 13.23L7.31 13.23C7.48 13.23 7.52 13.17 7.52 13.01L7.52 12.49C7.52 12.32 7.48 12.26 7.31 12.26ZM8.54 9.67C8.54 11.72 10.18 13.38 12.22 13.38C14.27 13.38 15.90 11.72 15.90 9.67C15.90 7.63 14.27 5.95 12.22 5.95C10.18 5.95 8.54 7.63 8.54 9.67ZM12.22 12.45C10.77 12.45 9.59 11.21 9.59 9.67C9.59 8.13 10.77 6.90 12.22 6.90C13.69 6.90 14.87 8.13 14.87 9.67C14.87 11.21 13.69 12.45 12.22 12.45ZM23.07 12.84C23.07 14.52 22.51 15.75 20.71 15.75C19.50 15.75 18.77 15.43 18.34 15.27C18.19 15.20 18.14 15.23 18.10 15.40L17.96 15.93C17.92 16.09 17.95 16.13 18.09 16.18C18.38 16.30 19.33 16.69 20.86 16.69C23.03 16.69 24.12 15.41 24.12 12.73L24.12 6.33C24.12 6.16 24.07 6.10 23.91 6.10L23.59 6.10C23.46 6.10 23.41 6.16 23.35 6.33L23.24 7.63C22.89 7.10 22.13 5.95 20.48 5.95C18.52 5.95 17.25 7.64 17.25 9.67C17.25 11.72 18.51 13.38 20.48 13.38C22.13 13.38 22.90 12.14 23.07 11.75ZM20.69 6.89C22.15 6.89 23.09 8.27 23.09 9.66C23.09 11.06 22.15 12.43 20.69 12.43C19.22 12.43 18.30 11.10 18.30 9.67C18.30 8.12 19.22 6.89 20.69 6.89ZM30.65 13.01C30.65 13.17 30.69 13.23 30.86 13.23L31.47 13.23C31.64 13.23 31.70 13.17 31.70 13.01L31.70 6.33C31.70 6.16 31.65 6.10 31.47 6.10L30.86 6.10C30.69 6.10 30.65 6.16 30.65 6.33ZM30.42 3.77C30.42 4.17 30.74 4.49 31.15 4.49C31.56 4.49 31.89 4.17 31.89 3.77C31.89 3.36 31.56 3.04 31.15 3.04C30.74 3.04 30.42 3.36 30.42 3.77ZM35.52 6.33C35.45 6.16 35.39 6.10 35.28 6.10L34.93 6.10C34.78 6.10 34.72 6.16 34.72 6.33L34.72 9.53L34.72 13.01C34.72 13.17 34.78 13.23 34.93 13.23L35.56 13.23C35.71 13.23 35.77 13.17 35.77 13.01L35.77 9.48C35.77 8.08 36.55 6.90 37.77 6.90C38.91 6.90 39.75 7.71 39.75 9.38L39.75 13.01C39.75 13.17 39.80 13.23 39.96 13.23L40.59 13.23C40.74 13.23 40.80 13.17 40.80 13.01L40.80 9.10C40.80 6.86 39.52 5.95 38.02 5.95C36.65 5.95 35.92 7.03 35.63 7.59Z"></path></g><defs data-v-423bf9ae=""><linearGradient data-v-423bf9ae="" gradientTransform="rotate(25)" id="04ca619c-3c8f-4354-b10e-fffff00923c7" x1="0%" y1="0%" x2="100%" y2="0%"><stop data-v-423bf9ae="" offset="0%" style="stop-color: rgb(81, 6, 255); stop-opacity: 1;"></stop><stop data-v-423bf9ae="" offset="100%" style="stop-color: rgb(97, 203, 242); stop-opacity: 1;"></stop></linearGradient></defs><g data-v-423bf9ae="" id="56b566d2-f6c9-414e-a564-15253672d29f" transform="matrix(2.8125,0,0,2.8125,0,1.0290013551712036)" stroke="none" fill="url(#04ca619c-3c8f-4354-b10e-fffff00923c7)"><path d="M0 31.984h32v-32H0v32zm2-30h28v28H2v-28z"></path><path d="M6.439 16.831h8.959l-4.48-7.741zM16.602 13.331h8.959L21.082 5.59zM6.439 26.41h8.959l-4.48-7.741zM16.602 22.91h8.959l-4.479-7.741z"></path></g><!----></svg>