<svg data-v-423bf9ae="" xmlns="http://www.w3.org/2000/svg" viewBox="0 0 542 90" class="iconLeft"><!----><!----><!----><g data-v-423bf9ae="" id="e9c7dce5-7100-44cd-8ede-bf13d7af4414" fill="black" transform="matrix(5.802707844736658,0,0,5.802707844736658,106.92456868233816,-5.483559241159334)"><path d="M6.29 5.88Q5.71 5.71 4.90 5.71L4.90 5.71Q3.29 5.71 2.65 6.80Q2.02 7.90 2.02 9.38L2.02 9.38Q2.02 10.91 2.64 12.00Q3.26 13.09 4.79 13.09L4.79 13.09Q5.52 13.09 5.99 12.87L5.99 12.87L5.99 10.50L4.76 10.21L4.76 9.69L8.32 9.69L8.32 10.22L7.38 10.49L7.38 13.27Q6.89 13.55 6.22 13.71Q5.54 13.86 4.77 13.86L4.77 13.86Q2.55 13.86 1.54 12.62Q0.53 11.38 0.53 9.38L0.53 9.38Q0.53 7.39 1.58 6.16Q2.63 4.93 4.90 4.93L4.90 4.93Q5.53 4.93 6.25 5.04Q6.97 5.15 7.42 5.35L7.42 5.35L7.22 7.24L6.62 7.24L6.29 5.88ZM12.52 13.72L8.71 13.72L8.71 13.19L9.93 12.91L9.93 4.63L8.71 4.49L8.71 4.06L10.85 3.53L11.31 3.53L11.31 12.91L12.52 13.19L12.52 13.72ZM16.58 6.71Q18.28 6.71 19.09 7.70Q19.89 8.69 19.89 10.32L19.89 10.32Q19.89 11.89 19.08 12.87Q18.27 13.86 16.58 13.86L16.58 13.86Q14.90 13.86 14.08 12.87Q13.26 11.89 13.26 10.32L13.26 10.32Q13.26 8.71 14.07 7.71Q14.88 6.71 16.58 6.71L16.58 6.71ZM18.38 10.28Q18.38 8.93 17.98 8.20Q17.57 7.46 16.53 7.46L16.53 7.46Q15.55 7.46 15.16 8.20Q14.77 8.95 14.77 10.28L14.77 10.28Q14.77 11.62 15.18 12.36Q15.58 13.10 16.62 13.10L16.62 13.10Q17.63 13.10 18.00 12.37Q18.38 11.63 18.38 10.28L18.38 10.28ZM22.90 7.08Q23.23 6.93 23.65 6.82Q24.07 6.71 24.42 6.71L24.42 6.71Q25.97 6.71 26.81 7.58Q27.65 8.46 27.65 10.23L27.65 10.23Q27.65 11.80 26.88 12.83Q26.11 13.86 24.22 13.86L24.22 13.86Q23.63 13.86 22.81 13.75Q21.98 13.64 21.50 13.47L21.50 13.47L21.50 4.63L20.31 4.49L20.31 4.06L22.47 3.53L22.90 3.53L22.90 7.08ZM22.90 12.91Q23.10 13.01 23.44 13.08Q23.77 13.15 24.16 13.15L24.16 13.15Q25.27 13.15 25.70 12.45Q26.12 11.76 26.12 10.26L26.12 10.26Q26.12 8.82 25.71 8.14Q25.30 7.46 24.21 7.46L24.21 7.46Q23.83 7.46 23.53 7.54Q23.23 7.62 22.90 7.77L22.90 7.77L22.90 12.91ZM31.85 13.87Q30.20 13.87 29.41 12.94Q28.63 12.01 28.63 10.32L28.63 10.32Q28.63 8.51 29.44 7.61Q30.24 6.71 31.70 6.71L31.70 6.71Q33.08 6.71 33.73 7.35Q34.38 7.99 34.38 9.37L34.38 9.37Q34.38 9.73 34.34 10.14L34.34 10.14L30.14 10.14L30.14 10.54Q30.14 11.77 30.67 12.40Q31.19 13.03 32.16 13.03L32.16 13.03Q33.05 13.03 34.20 12.71L34.20 12.71L34.30 13.20Q33.74 13.55 33.17 13.71Q32.59 13.87 31.85 13.87L31.85 13.87ZM30.17 9.56L32.93 9.41L32.93 9.10Q32.93 8.29 32.66 7.89Q32.40 7.49 31.78 7.49L31.78 7.49Q30.94 7.49 30.58 7.97Q30.23 8.46 30.17 9.56L30.17 9.56ZM39.35 13.55Q38.95 13.66 38.27 13.76Q37.59 13.85 37.23 13.85L37.23 13.85Q36.09 13.85 36.09 12.71L36.09 12.71L36.09 7.64L35.07 7.64L35.07 7.10L36.22 6.69L36.83 5.29L37.46 5.29L37.46 6.85L39.55 6.85L39.55 7.76L37.46 7.64L37.46 12.80L39.35 13.08L39.35 13.55ZM44.02 7.70Q43.30 7.70 42.69 7.95L42.69 7.95L42.69 12.91L44.28 13.22L44.28 13.72L40.10 13.72L40.10 13.23L41.30 12.89L41.30 7.83L40.10 7.67L40.10 7.24L42.13 6.71L42.66 6.71L42.66 7.35Q43.13 7.04 43.72 6.86Q44.30 6.68 44.80 6.68L44.80 6.68Q45.07 6.68 45.18 6.69L45.18 6.69L44.94 8.86L44.31 8.86L44.02 7.70ZM49.10 6.71Q50.81 6.71 51.61 7.70Q52.42 8.69 52.42 10.32L52.42 10.32Q52.42 11.89 51.60 12.87Q50.79 13.86 49.10 13.86L49.10 13.86Q47.42 13.86 46.60 12.87Q45.78 11.89 45.78 10.32L45.78 10.32Q45.78 8.71 46.59 7.71Q47.40 6.71 49.10 6.71L49.10 6.71ZM50.90 10.28Q50.90 8.93 50.50 8.20Q50.09 7.46 49.06 7.46L49.06 7.46Q48.08 7.46 47.68 8.20Q47.29 8.95 47.29 10.28L47.29 10.28Q47.29 11.62 47.70 12.36Q48.10 13.10 49.14 13.10L49.14 13.10Q50.15 13.10 50.53 12.37Q50.90 11.63 50.90 10.28L50.90 10.28ZM57.48 13.55Q57.08 13.66 56.40 13.76Q55.72 13.85 55.36 13.85L55.36 13.85Q54.22 13.85 54.22 12.71L54.22 12.71L54.22 7.64L53.20 7.64L53.20 7.10L54.35 6.69L54.96 5.29L55.59 5.29L55.59 6.85L57.68 6.85L57.68 7.76L55.59 7.64L55.59 12.80L57.48 13.08L57.48 13.55ZM62.41 13.55Q62.01 13.66 61.33 13.76Q60.65 13.85 60.28 13.85L60.28 13.85Q59.15 13.85 59.15 12.71L59.15 12.71L59.15 7.64L58.13 7.64L58.13 7.10L59.28 6.69L59.89 5.29L60.52 5.29L60.52 6.85L62.61 6.85L62.61 7.76L60.52 7.64L60.52 12.80L62.41 13.08L62.41 13.55ZM66.47 13.87Q64.82 13.87 64.04 12.94Q63.25 12.01 63.25 10.32L63.25 10.32Q63.25 8.51 64.06 7.61Q64.86 6.71 66.32 6.71L66.32 6.71Q67.70 6.71 68.35 7.35Q69.01 7.99 69.01 9.37L69.01 9.37Q69.01 9.73 68.96 10.14L68.96 10.14L64.76 10.14L64.76 10.54Q64.76 11.77 65.29 12.40Q65.81 13.03 66.78 13.03L66.78 13.03Q67.68 13.03 68.82 12.71L68.82 12.71L68.92 13.20Q68.36 13.55 67.79 13.71Q67.21 13.87 66.47 13.87L66.47 13.87ZM64.79 9.56L67.55 9.41L67.55 9.10Q67.55 8.29 67.28 7.89Q67.02 7.49 66.40 7.49L66.40 7.49Q65.56 7.49 65.20 7.97Q64.85 8.46 64.79 9.56L64.79 9.56ZM73.71 7.70Q73.00 7.70 72.38 7.95L72.38 7.95L72.38 12.91L73.98 13.22L73.98 13.72L69.79 13.72L69.79 13.23L70.99 12.89L70.99 7.83L69.79 7.67L69.79 7.24L71.82 6.71L72.35 6.71L72.35 7.35Q72.83 7.04 73.41 6.86Q73.99 6.68 74.49 6.68L74.49 6.68Q74.76 6.68 74.87 6.69L74.87 6.69L74.63 8.86L74.00 8.86L73.71 7.70Z"></path></g><!----><g data-v-423bf9ae="" id="85349ad3-df3d-49b5-bf0d-69afa1d05b72" transform="matrix(2.8125,0,0,2.8125,0,1.0290013551712036)" stroke="none" fill="black"><path d="M0 31.984h32v-32H0v32zm2-30h28v28H2v-28z"></path><path d="M6.439 16.831h8.959l-4.48-7.741zM16.602 13.331h8.959L21.082 5.59zM6.439 26.41h8.959l-4.48-7.741zM16.602 22.91h8.959l-4.479-7.741z"></path></g><!----></svg>