<svg data-v-423bf9ae="" xmlns="http://www.w3.org/2000/svg" viewBox="0 0 310 90" class="iconLeft"><!----><!----><!----><g data-v-423bf9ae="" id="7b409a81-f7d4-4e4c-965b-fa7a9550838a" fill="#000000" transform="matrix(4.535147549208299,0,0,4.535147549208299,107.00679890476384,12.505667661384017)"><path d="M5.43 8.05C5.43 9.27 4.77 10.08 3.22 10.08C2.20 10.08 1.40 9.73 0.66 9.35L0.66 10.32C1.32 10.63 2.34 10.84 3.21 10.84C5.29 10.84 6.52 9.67 6.52 8.06C6.52 6.72 5.98 5.94 4.27 5.17L3.35 4.76C2.18 4.26 1.83 3.67 1.83 3.07C1.83 1.86 2.56 1.30 3.86 1.30C4.77 1.30 5.39 1.58 6.08 1.92L6.08 0.98C5.45 0.70 4.68 0.55 3.84 0.55C2.00 0.55 0.81 1.55 0.81 3.16C0.81 4.47 1.46 5.21 2.90 5.84L3.85 6.24C4.94 6.72 5.43 7.28 5.43 8.05ZM9.56 10.64L9.56 3.58L8.50 3.58L8.50 10.64ZM9.67 1.40C9.67 0.87 9.48 0.70 9.04 0.70C8.60 0.70 8.37 0.88 8.37 1.40C8.37 1.95 8.58 2.10 9.02 2.10C9.46 2.10 9.67 1.92 9.67 1.40ZM17.46 5.60C17.46 4.94 17.47 4.28 17.53 3.58L16.56 3.58C16.52 3.85 16.49 4.09 16.48 4.24C16.04 3.72 15.36 3.43 14.45 3.43C12.89 3.43 11.44 4.37 11.44 7.18C11.44 9.56 12.45 10.67 14.21 10.67C15.18 10.67 15.90 10.37 16.42 9.76L16.42 10.47C16.42 11.49 16.24 12.15 15.89 12.50C15.55 12.84 14.91 13.02 14.27 13.02C13.61 13.02 12.80 12.91 12.07 12.50L12.07 13.37C12.68 13.64 13.40 13.78 14.27 13.78C15.32 13.78 16.35 13.51 16.90 12.81C17.29 12.32 17.46 11.59 17.46 10.46ZM16.44 6.87C16.44 8.99 16.32 9.17 15.82 9.59C15.57 9.80 15.06 10.00 14.53 10.00C13.34 10.00 12.53 9.10 12.53 7.20C12.53 5.07 13.45 4.10 14.56 4.10C15.15 4.10 15.71 4.26 16.06 4.72C16.34 5.07 16.44 5.33 16.44 6.87ZM24.32 10.64L25.35 10.64L25.35 6.48C25.35 5.64 25.33 5.25 25.27 4.87C25.12 3.78 24.29 3.40 23.31 3.40C22.67 3.40 21.50 3.68 20.86 4.61C20.86 4.48 20.80 3.82 20.75 3.58L19.71 3.58C19.81 4.24 19.85 5.43 19.85 6.26L19.85 10.64L20.90 10.64L20.90 6.40C20.90 5.59 20.96 5.32 21.21 4.94C21.59 4.40 22.29 4.12 22.92 4.12C23.63 4.12 24.04 4.40 24.19 4.94C24.29 5.31 24.32 5.82 24.32 6.68ZM32.00 3.58L30.95 3.58L30.95 7.76C30.95 8.40 31.00 9.04 31.08 9.39C31.33 10.49 32.09 10.82 33.07 10.82C33.70 10.82 34.69 10.71 35.43 9.83C35.45 10.09 35.50 10.43 35.55 10.64L36.60 10.64C36.50 9.91 36.46 9.09 36.46 8.26L36.46 3.58L35.42 3.58L35.42 7.92C35.42 8.83 35.41 9.06 35.10 9.39C34.68 9.88 34.01 10.09 33.43 10.09C32.73 10.09 32.28 9.80 32.13 9.24C32.03 8.89 32.00 8.32 32.00 7.46ZM39.91 4.41C39.89 4.19 39.83 3.79 39.79 3.58L38.77 3.58C38.84 4.03 38.89 4.69 38.89 5.22L38.89 13.71L39.94 13.71L39.94 10.16C40.43 10.60 41.03 10.79 41.86 10.79C43.11 10.79 44.72 10.08 44.72 7.01C44.72 4.63 43.74 3.43 42.06 3.43C41.15 3.43 40.47 3.77 39.91 4.41ZM39.93 7.18C39.93 5.29 40.03 4.93 40.53 4.52C40.78 4.33 41.27 4.06 41.85 4.06C42.98 4.06 43.62 4.98 43.62 7.03C43.62 9.25 42.87 10.16 41.75 10.16C41.16 10.16 40.66 10.05 40.29 9.65C39.97 9.30 39.93 8.74 39.93 7.18Z"></path></g><defs data-v-423bf9ae=""><linearGradient data-v-423bf9ae="" gradientTransform="rotate(25)" id="2e5f4a73-1150-4943-b971-09e40a6c7243" x1="0%" y1="0%" x2="100%" y2="0%"><stop data-v-423bf9ae="" offset="0%" style="stop-color: rgb(40, 139, 88); stop-opacity: 1;"></stop><stop data-v-423bf9ae="" offset="100%" style="stop-color: rgb(21, 34, 241); stop-opacity: 1;"></stop></linearGradient></defs><g data-v-423bf9ae="" id="4303d78c-44a8-423e-aca9-eee4f789c3ba" transform="matrix(2.8125,0,0,2.8125,0,1.0290013551712036)" stroke="none" fill="url(#2e5f4a73-1150-4943-b971-09e40a6c7243)"><path d="M0 31.984h32v-32H0v32zm2-30h28v28H2v-28z"></path><path d="M6.439 16.831h8.959l-4.48-7.741zM16.602 13.331h8.959L21.082 5.59zM6.439 26.41h8.959l-4.48-7.741zM16.602 22.91h8.959l-4.479-7.741z"></path></g><!----></svg>